<svg xmlns="http://www.w3.org/2000/svg" viewBox="0 0 500 500"><rect width="500" height="500" fill="#050505"/><defs><linearGradient id="g" x1="0" y1="0" x2="1" y2="1"><stop stop-color="#fff0a8"/><stop offset=".35" stop-color="#d5a33d"/><stop offset=".7" stop-color="#f3cf72"/><stop offset="1" stop-color="#9b6c20"/></linearGradient></defs><circle cx="250" cy="250" r="165" fill="none" stroke="url(#g)" stroke-width="3"/><path d="M94 250c20 52 57 92 111 119 45 22 85 28 120 15 29-11 55-31 82-39 24-7 43-2 63 12-28 11-52 31-78 48-39 25-82 35-128 30-75-9-132-51-170-120z" fill="none" stroke="url(#g)" stroke-width="15" stroke-linecap="round" opacity=".9"/><g fill="url(#g)" font-family="Georgia,serif" font-weight="700"><text x="202" y="275" font-size="115">R</text><text x="255" y="330" font-size="115">P</text></g><g fill="url(#g)" font-family="Arial,sans-serif" font-size="27" font-weight="700" letter-spacing="15"><text x="145" y="105">ROYAL</text><text x="320" y="150" transform="rotate(62 320 150)">PET</text></g></svg>